<svg id="Livello_1" data-name="Livello 1" xmlns="http://www.w3.org/2000/svg" width="206.74mm" height="104.7mm" viewBox="0 0 586.04 296.78">
  <defs>
    <style>
      .cls-1 {
        fill: #107a72;
      }

      .cls-2 {
        fill: #353535;
      }

      .cls-3 {
        fill: #f6a432;
      }
    </style>
  </defs>
  <path class="cls-1" d="M206.72,39.23A124.22,124.22,0,0,0,190,68.91,25.28,25.28,0,0,0,188,77.44c0,5.46,4.1,9.89,12.28,12.62L218,96.54c.34-4.09.69-8.18.69-13C218.66,65.84,214.9,51.17,206.72,39.23Z" transform="translate(0)"/>
  <path class="cls-2" d="M391.93,47.07c-7.83-14-19.43-25.24-34.43-33.45v0a8.52,8.52,0,0,0-.35.93,20.19,20.19,0,0,0-1,5.57s0,0,0,0c-.05.85-.08,1.73-.08,2.66V181.47l0,0a22.54,22.54,0,0,0,4.08-2.37c15.35-9.89,26.6-21.49,33.42-34.79,7.17-13.3,10.58-30,10.58-50.48A91.92,91.92,0,0,0,391.93,47.07Z" transform="translate(0)"/>
  <g>
    <path class="cls-1" d="M223.42,179.79a54.31,54.31,0,0,0-3.73-7.87,61.92,61.92,0,0,0-29-26.25v-1.36a61.8,61.8,0,0,0,21.48-24.92,71.7,71.7,0,0,0,6.13-22.85l-17.72-6.47a31.86,31.86,0,0,1-3.2-1.26l-1-.45a14.14,14.14,0,0,1-1.63-.93,16.12,16.12,0,0,1-1.7-1.12c-3.2-2.45-4.8-5.47-4.8-8.88a25.44,25.44,0,0,1,2.05-8.53,124.27,124.27,0,0,1,16.72-29.66v0A48.05,48.05,0,0,0,196.13,26.6q-23-20.48-64.46-20.44h-115c-6.16,0-10.58,1.36-12.95,3.73C1,12.29,0,16.71,0,22.87V280.06c0,6.48,1,10.59,3.76,13,2.37,2.71,6.79,3.73,13,3.73H133.38c21.48,0,39.56-4.08,54.91-11.94,5.46-2.38,10.24-5.79,15-9.2q26.63-21.51,26.6-59.36C229.9,202.28,227.87,190,223.42,179.79ZM66.5,65.17h54.94c20.12,0,30,9.2,30,28,0,18.42-9.89,27.64-30,27.64H66.5Zm62.78,172.94H66.5V178.4h62.78c20.47,0,30.7,10.24,30.7,30S149.75,238.11,129.28,238.11Z" transform="translate(0)"/>
    <path class="cls-3" d="M398.44,253.46v26.6c0,6.48-1.39,10.59-3.76,13-2.4,2.71-6.82,3.73-12.95,3.73H204.66c-6.13,0-10.56-1-13-3.73a13.2,13.2,0,0,1-3.41-8.21c5.47-2.38,10.24-5.79,15-9.2q26.63-21.51,26.6-59.36c0-14-2-26.26-6.48-36.49.7-.7,1.71-1,2.4-1.71q16.35-10.23,40.94-20.47c16.37-6.48,28.66-11.94,37.19-16.05a69.87,69.87,0,0,0,22.15-17.37q9.22-11.28,9.22-27.65,0-15.35-10.24-25.58c-6.82-6.83-15.7-10.24-26.94-10.24s-20.13,2.4-27.3,7.17C264,73,258.23,80.52,253.46,91.08c-2.05,4.11-4.1,7.52-6.15,9.22a8.54,8.54,0,0,1-6.83,3.07,27.15,27.15,0,0,1-8.18-1.71l-14-5.12v0L200.58,90a34.61,34.61,0,0,1-4.16-1.68,14.14,14.14,0,0,1-1.63-.93c-.61-.35-1.17-.75-1.7-1.12-3.2-2.45-4.8-5.47-4.8-8.88a25.44,25.44,0,0,1,2.05-8.53,124.27,124.27,0,0,1,16.72-29.66v0C227.9,13,258.93,0,300.54,0c21.48,0,39.9,4.45,55.6,12.63.32.32,1,.67,1.36,1a8.52,8.52,0,0,0-.35.93,20.19,20.19,0,0,0-1,5.57s0,0,0,0c-.05.85-.08,1.73-.08,2.66V181.47l0,0v.05c-14.69,9.2-35.13,19.09-61.42,29.32a11.8,11.8,0,0,1-4.77,2.06,17.22,17.22,0,0,0-4.42,1.36c-9.22,3.06-16.39,5.81-21.17,8.53s-7.17,6.15-7.17,10.58v3.76H381.73c6.13,0,10.55,1,12.95,3.41S398.44,247.33,398.44,253.46Z" transform="translate(0)"/>
    <path class="cls-2" d="M356.11,22.84c0-.93,0-1.81.08-2.66,0,.85-.05,1.76-.05,2.69V181.44l0,0Z" transform="translate(0)"/>
    <path class="cls-2" d="M357.15,14.58a20.75,20.75,0,0,0-1,5.57A20.19,20.19,0,0,1,357.15,14.58Z" transform="translate(0)"/>
    <path class="cls-1" d="M471.44,272.17a14.47,14.47,0,0,0-.41-2.61c-.13-.51-.31-1.06-.52-1.65a6.12,6.12,0,0,0-.79-1.51,3.67,3.67,0,0,0-2.67-1.48,1,1,0,0,1-.63,1,12.31,12.31,0,0,0-5.41,4.94,27,27,0,0,0-3.08,6.77,15.84,15.84,0,0,0-.78,6v.15a11.46,11.46,0,0,0,.35,2.07,2.86,2.86,0,0,0,1.09,1.71,3.71,3.71,0,0,0,2.07.47q.21,0,1-.15a4.66,4.66,0,0,0,1.79-.9,20.76,20.76,0,0,0,5-5,16.45,16.45,0,0,0,2.85-6.35A14.16,14.16,0,0,0,471.44,272.17Zm0,0a14.47,14.47,0,0,0-.41-2.61c-.13-.51-.31-1.06-.52-1.65a6.12,6.12,0,0,0-.79-1.51,3.67,3.67,0,0,0-2.67-1.48,1,1,0,0,1-.63,1,12.31,12.31,0,0,0-5.41,4.94,27,27,0,0,0-3.08,6.77,15.84,15.84,0,0,0-.78,6v.15a11.46,11.46,0,0,0,.35,2.07,2.86,2.86,0,0,0,1.09,1.71,3.71,3.71,0,0,0,2.07.47q.21,0,1-.15a4.66,4.66,0,0,0,1.79-.9,20.76,20.76,0,0,0,5-5,16.45,16.45,0,0,0,2.85-6.35A14.16,14.16,0,0,0,471.44,272.17Zm0,0a14.47,14.47,0,0,0-.41-2.61c-.13-.51-.31-1.06-.52-1.65a6.12,6.12,0,0,0-.79-1.51,3.67,3.67,0,0,0-2.67-1.48,1,1,0,0,1-.63,1,12.31,12.31,0,0,0-5.41,4.94,27,27,0,0,0-3.08,6.77,15.84,15.84,0,0,0-.78,6v.15a11.46,11.46,0,0,0,.35,2.07,2.86,2.86,0,0,0,1.09,1.71,3.71,3.71,0,0,0,2.07.47q.21,0,1-.15a4.66,4.66,0,0,0,1.79-.9,20.76,20.76,0,0,0,5-5,16.45,16.45,0,0,0,2.85-6.35A14.16,14.16,0,0,0,471.44,272.17Zm37.81-5.65c0-.59-.08-1.15-.15-1.7a2.35,2.35,0,0,0-.31-1,1.58,1.58,0,0,0-1-.36,1.73,1.73,0,0,0-.82.4,5.21,5.21,0,0,0-1,1.07,1.1,1.1,0,0,1-.25.31,49.52,49.52,0,0,0-9.45,18.66h.12a1.1,1.1,0,0,1,.73.25,4.73,4.73,0,0,0,3.11,1.15,5.34,5.34,0,0,0,2.35-1,10.74,10.74,0,0,0,3-3.74,32.32,32.32,0,0,0,2.27-4.84,21.82,21.82,0,0,0,1.42-7.86C509.29,267.53,509.28,267.11,509.25,266.52Zm-37.81,5.65a14.47,14.47,0,0,0-.41-2.61c-.13-.51-.31-1.06-.52-1.65a6.12,6.12,0,0,0-.79-1.51,3.67,3.67,0,0,0-2.67-1.48,1,1,0,0,1-.63,1,12.31,12.31,0,0,0-5.41,4.94,27,27,0,0,0-3.08,6.77,15.84,15.84,0,0,0-.78,6v.15a11.46,11.46,0,0,0,.35,2.07,2.86,2.86,0,0,0,1.09,1.71,3.71,3.71,0,0,0,2.07.47q.21,0,1-.15a4.66,4.66,0,0,0,1.79-.9,20.76,20.76,0,0,0,5-5,16.45,16.45,0,0,0,2.85-6.35A14.16,14.16,0,0,0,471.44,272.17ZM575.8,171.92a61.9,61.9,0,0,0-29-26.25v-1.36a61.8,61.8,0,0,0,21.48-24.92c4.42-9.54,6.82-21.49,6.82-35.8,0-24.58-7.51-43.66-22.87-57q-23-20.48-64.45-20.44h-115c-6.16,0-10.58,1.36-13,3.73a10.28,10.28,0,0,0-2.37,3.73v0a8.52,8.52,0,0,0-.35.93c-.06.16-.1.31-.15.47s-.07.24-.11.37v0s0,.05,0,.07,0,.06,0,.09a4.54,4.54,0,0,0-.12.5c0,.16-.07.33-.11.5s-.1.55-.14.83-.07.5-.1.75c0,0,0,.08,0,.11l-.09.91c0,.31-.05.62-.07.94,0,0,0,0,0,0,0,.85-.05,1.76-.05,2.69V237.1h25.59c6.13,0,10.55,1,12.95,3.41s3.76,6.82,3.76,13v26.6c0,6.48-1.39,10.59-3.76,13-2.4,2.71-6.82,3.73-12.95,3.73h43.93a6.82,6.82,0,0,1-.08-.79,13.35,13.35,0,0,1,.76-5.3c.13-.53.27-1.07.41-1.62a13.65,13.65,0,0,1-4.06,2.58,6.78,6.78,0,0,1-2.07.46,9.88,9.88,0,0,1-2.75-.25,10.84,10.84,0,0,1-7.32-5.14,14.11,14.11,0,0,1-1.24-4.84l0-.65a25.38,25.38,0,0,1,.08-4.39,42.17,42.17,0,0,1,9-20.59,35.69,35.69,0,0,1,7.68-6.94,10.43,10.43,0,0,1,5.24-2,8.62,8.62,0,0,1,4.32.86,5,5,0,0,1,2.51,4c0,.16,0,.77,0,1.83a12.19,12.19,0,0,1-1.44,4.53,20.9,20.9,0,0,1-2.91,4.69.94.94,0,0,1-.66.37,1.53,1.53,0,0,1-.49-.1,1.12,1.12,0,0,1-.58-.61.82.82,0,0,1-.07-.3,1.06,1.06,0,0,1,.25-.73,18.56,18.56,0,0,0,2.6-4.14,9.81,9.81,0,0,0,.94-4.73c-.2-1.49-.77-2.36-1.73-2.62a4.05,4.05,0,0,0-1.45-.14,8.26,8.26,0,0,0-2.13.52,11.63,11.63,0,0,0-2.55,1.31,31.55,31.55,0,0,0-9.2,10,42.85,42.85,0,0,0-5.5,13.89,16.86,16.86,0,0,0-.42,4.67,10.43,10.43,0,0,0,4.35,8,9.18,9.18,0,0,0,3.51.53,7.46,7.46,0,0,0,5.37-3,39.4,39.4,0,0,0,4.92-9.73c.33-.86.67-1.74,1-2.62.16-.39.31-.8.46-1.23l.49-1.26s0,0,0,0l-.47.15a45.14,45.14,0,0,0-7.28,3.92,1.33,1.33,0,0,1-.62.22,1.25,1.25,0,0,1-.7-.24,1.27,1.27,0,0,1-.54-.85v-.09a1.1,1.1,0,0,1,.53-1,55.94,55.94,0,0,1,6.85-4,19,19,0,0,1,7.17-2l.38,0a1,1,0,0,1,.72.32,1,1,0,0,1,.24.61s0,.13,0,.27-.13.29-.42.45a16.83,16.83,0,0,1-2.22,1,14.46,14.46,0,0,1-1,3c-.13.35-.26.67-.38,1l-.16.43c-1,2.53-1.92,5.07-2.77,7.65a68.38,68.38,0,0,0-2.07,7.48,59.79,59.79,0,0,1-1.84,7.17h61.27l2.53,0a75,75,0,0,1,1.83-17q1.1-5,2.4-9.84c.2-.76.38-1.51.55-2.26a31.17,31.17,0,0,1,2.17-6.8,1,1,0,0,1,.75-.52h.18a1.25,1.25,0,0,1,.73.16.72.72,0,0,1,.37.63v.15a51,51,0,0,1-2.26,11c.55-1.06,1.14-2.11,1.77-3.14.08-.11.16-.24.25-.38q.87-1.5,2.59-3.87a13.29,13.29,0,0,1,3.62-3.58,2.68,2.68,0,0,1,1.29-.47,2.45,2.45,0,0,1,2.12,1.21,14.1,14.1,0,0,1,1.93,6.24,24.11,24.11,0,0,1-.75,6.16,25.13,25.13,0,0,1-3.75,8.43,13.06,13.06,0,0,1-3.45,3.53,8.72,8.72,0,0,1-4.61,1.76,4.41,4.41,0,0,1-4-2.35c-.26,1.21-.49,2.43-.69,3.64q-.37,3.35-.6,7.25c26.38-.79,47.93-7.9,64.95-21.07q26.64-21.51,26.61-59.36C586,198.55,582.62,183.52,575.8,171.92ZM423,65.17h54.59c20.12,0,30,9.2,30,28,0,18.42-9.89,27.64-30,27.64H423Zm30.26,210.57a4.66,4.66,0,0,1-.24,1.39,1.66,1.66,0,0,1-.66.91.39.39,0,0,1-.21.08c-.21,0-.46-.14-.75-.47a7.36,7.36,0,0,1-1.41-3.8,15.18,15.18,0,0,1,.2-2.51,18.14,18.14,0,0,1,1.42-4.5,13.08,13.08,0,0,0-3.6,4.45,52.47,52.47,0,0,0-2.41,5.18c-.24.57-.45,1.06-.63,1.45a66.49,66.49,0,0,0-4.33,13.44c-.12.51-.35.81-.69.89h-.15a1.27,1.27,0,0,1-.92-.36,2.36,2.36,0,0,1-.66-1.49l0-.39a11.53,11.53,0,0,1,0-1.44,5.6,5.6,0,0,0,0-.69,62.34,62.34,0,0,1,1.23-11.21c.1-.56.2-1.15.3-1.76a23.5,23.5,0,0,1,3.67-10.64,1.45,1.45,0,0,1,1-.57,2.2,2.2,0,0,1,.48.05c.25.05.4.37.46,1a25.5,25.5,0,0,1-1.61,8.08,44.79,44.79,0,0,0-1.26,4.76,2.28,2.28,0,0,0-.06.39l-.05.24c.51-1.11,1-2.22,1.56-3.34.16-.28.31-.57.45-.86a34.63,34.63,0,0,1,3.25-5.69,13.11,13.11,0,0,1,5.41-4.26,1.59,1.59,0,0,1,.53-.15c.4,0,.68.22.83.76a10.6,10.6,0,0,1,.22,1.45,8.09,8.09,0,0,1-.36,2.93c-.06.23-.12.45-.16.68a41.05,41.05,0,0,0-.82,5.93Zm17.49,6.78A19.59,19.59,0,0,1,463.1,290a7.17,7.17,0,0,1-2.76.81,5.74,5.74,0,0,1-4.6-2,8.22,8.22,0,0,1-1.7-4.49l0-.47a18.63,18.63,0,0,1,.23-4.37,27.9,27.9,0,0,1,4.71-10.8,17.32,17.32,0,0,1,2.53-3.13,1.32,1.32,0,0,1-.19-.59,2.37,2.37,0,0,1,0-.4c0-.2.21-.4.53-.62a9.49,9.49,0,0,1,4.34-1.6l.36,0a5.31,5.31,0,0,1,3.93,1.36,10,10,0,0,1,2.39,4.08,18.26,18.26,0,0,1,.73,4l0,.63A19.21,19.21,0,0,1,470.74,282.52Zm23.94-20.81Q494,265,493,268.3a71.05,71.05,0,0,0-2.16,9.41,23.42,23.42,0,0,0-.22,5,24.47,24.47,0,0,0,.75,4.57,1.54,1.54,0,0,1,0,.3,1.1,1.1,0,0,1-.27.85,1.14,1.14,0,0,1-.87.45l-.36,0c-.2,0-.45-.16-.75-.52a9.54,9.54,0,0,1-1.76-4.92,10.65,10.65,0,0,1,.12-2.38c-.45,1.15-.91,2.3-1.37,3.45a9.52,9.52,0,0,1-3.13,4.1,5,5,0,0,1-2.75,1,6.73,6.73,0,0,1-2.48-.35,5.83,5.83,0,0,1-3.48-4.64c-.08-.65-.14-1.29-.18-1.9a21,21,0,0,1,.1-4c.07-.54.12-1.11.17-1.69a74.86,74.86,0,0,1,1.06-8.14,18.72,18.72,0,0,1,2.87-7.26,1.11,1.11,0,0,1,.75-.44,2.1,2.1,0,0,1,.47.08,1.21,1.21,0,0,1,.68.57,1.08,1.08,0,0,1,.18.53,1.18,1.18,0,0,1-.11.6,33.1,33.1,0,0,0-1.45,5.11,71.51,71.51,0,0,0-1.36,8.06,33.29,33.29,0,0,0-.18,5.71c0,.62.16,1.59.37,2.92a2.05,2.05,0,0,0,2.49,1.85,4,4,0,0,0,3.1-1.65,19.76,19.76,0,0,0,1.93-3.17.14.14,0,0,1,0-.06,40.91,40.91,0,0,0,2.71-7c.34-1.14.67-2.27,1-3.39a71,71,0,0,1,3.56-10.43,1.05,1.05,0,0,1,.89-.62,1.23,1.23,0,0,1,1,.35,1,1,0,0,1,.35.73C494.69,261.48,494.69,261.59,494.68,261.71Zm-9.27-23.6H423V178.4h62.42c20.47,0,30.71,10.24,30.71,30S505.88,238.11,485.41,238.11Zm14.83,47.15a5.34,5.34,0,0,0,2.35-1,10.74,10.74,0,0,0,3-3.74,32.32,32.32,0,0,0,2.27-4.84,21.82,21.82,0,0,0,1.42-7.86c0-.26,0-.68,0-1.27s-.08-1.15-.15-1.7a2.35,2.35,0,0,0-.31-1,1.58,1.58,0,0,0-1-.36,1.73,1.73,0,0,0-.82.4,5.21,5.21,0,0,0-1,1.07,1.1,1.1,0,0,1-.25.31,49.52,49.52,0,0,0-9.45,18.66h.12a1.1,1.1,0,0,1,.73.25A4.73,4.73,0,0,0,500.24,285.26ZM471,269.56c-.13-.51-.31-1.06-.52-1.65a6.12,6.12,0,0,0-.79-1.51,3.67,3.67,0,0,0-2.67-1.48,1,1,0,0,1-.63,1,12.31,12.31,0,0,0-5.41,4.94,27,27,0,0,0-3.08,6.77,15.84,15.84,0,0,0-.78,6v.15a11.46,11.46,0,0,0,.35,2.07,2.86,2.86,0,0,0,1.09,1.71,3.71,3.71,0,0,0,2.07.47q.21,0,1-.15a4.66,4.66,0,0,0,1.79-.9,20.76,20.76,0,0,0,5-5,16.45,16.45,0,0,0,2.85-6.35,14.16,14.16,0,0,0,.2-3.43A14.47,14.47,0,0,0,471,269.56Zm.41,2.61a14.47,14.47,0,0,0-.41-2.61c-.13-.51-.31-1.06-.52-1.65a6.12,6.12,0,0,0-.79-1.51,3.67,3.67,0,0,0-2.67-1.48,1,1,0,0,1-.63,1,12.31,12.31,0,0,0-5.41,4.94,27,27,0,0,0-3.08,6.77,15.84,15.84,0,0,0-.78,6v.15a11.46,11.46,0,0,0,.35,2.07,2.86,2.86,0,0,0,1.09,1.71,3.71,3.71,0,0,0,2.07.47q.21,0,1-.15a4.66,4.66,0,0,0,1.79-.9,20.76,20.76,0,0,0,5-5,16.45,16.45,0,0,0,2.85-6.35A14.16,14.16,0,0,0,471.44,272.17Zm0,0a14.47,14.47,0,0,0-.41-2.61c-.13-.51-.31-1.06-.52-1.65a6.12,6.12,0,0,0-.79-1.51,3.67,3.67,0,0,0-2.67-1.48,1,1,0,0,1-.63,1,12.31,12.31,0,0,0-5.41,4.94,27,27,0,0,0-3.08,6.77,15.84,15.84,0,0,0-.78,6v.15a11.46,11.46,0,0,0,.35,2.07,2.86,2.86,0,0,0,1.09,1.71,3.71,3.71,0,0,0,2.07.47q.21,0,1-.15a4.66,4.66,0,0,0,1.79-.9,20.76,20.76,0,0,0,5-5,16.45,16.45,0,0,0,2.85-6.35A14.16,14.16,0,0,0,471.44,272.17Z" transform="translate(0)"/>
  </g>
</svg>
