<svg id="Livello_1" data-name="Livello 1" xmlns="http://www.w3.org/2000/svg" viewBox="0 0 679.59 585"><defs><style>.cls-1{fill:#107a72;}.cls-2{font-size:81.41px;fill:#f7a432;font-family:Panton-Black, Panton;font-weight:800;letter-spacing:-0.02em;}.cls-3{letter-spacing:-0.02em;}.cls-4{letter-spacing:-0.02em;}</style></defs><polygon class="cls-1" points="679.58 198.93 679.58 301.49 339.79 102.57 0 301.49 0 198.93 339.79 0 679.58 198.93"/><path class="cls-1" d="M56.19,510.68H30.06A80.33,80.33,0,0,1,26.55,487a84.29,84.29,0,0,1,3.51-23.93H56.19A160.29,160.29,0,0,0,56.19,510.68Z" transform="translate(0 -5.29)"/><path class="cls-1" d="M58.15,521.13c3.84,17,10.45,31.28,18.95,41.57a82.63,82.63,0,0,1-43-41.57Z" transform="translate(0 -5.29)"/><path class="cls-1" d="M58.15,452.62h-24a82.26,82.26,0,0,1,43-41.32C68.6,421.42,62,435.8,58.15,452.62Z" transform="translate(0 -5.29)"/><path class="cls-1" d="M103.23,405.66v47H69.09C75.38,427.63,88.28,409.17,103.23,405.66Z" transform="translate(0 -5.29)"/><path class="cls-1" d="M66.89,463.07h36.34v47.61H66.81A148,148,0,0,1,66.89,463.07Z" transform="translate(0 -5.29)"/><path class="cls-1" d="M69,521.13h34.22v47.12C88.28,564.74,75.38,546.2,69,521.13Z" transform="translate(0 -5.29)"/><path class="cls-1" d="M147.9,521.13c-6.29,25.07-19.19,43.61-34.22,47.12V521.13Z" transform="translate(0 -5.29)"/><path class="cls-1" d="M147.9,452.62H113.68v-47C128.71,409.17,141.61,427.63,147.9,452.62Z" transform="translate(0 -5.29)"/><path class="cls-1" d="M150.1,510.68H113.68V463.07H150.1A145.72,145.72,0,0,1,150.1,510.68Z" transform="translate(0 -5.29)"/><path class="cls-1" d="M158.76,452.62c-3.84-16.82-10.46-31.2-18.95-41.32a82.13,82.13,0,0,1,43,41.32Z" transform="translate(0 -5.29)"/><path class="cls-1" d="M158.84,521.13h24.09a82.5,82.5,0,0,1-43.12,41.57C148.39,552.41,155,538.12,158.84,521.13Z" transform="translate(0 -5.29)"/><path class="cls-1" d="M186.85,463.07a82.14,82.14,0,0,1,.08,47.61H160.8a165.83,165.83,0,0,0,0-47.61Z" transform="translate(0 -5.29)"/><path class="cls-1" d="M587.48,360.75l-247.68-145L250.54,268l2.78,1.63,244.9,143.32-63,36.91-29,17L161.29,323.51,0,417.91V590.3H679.59V414.65Zm-479,218.61A92.43,92.43,0,0,1,16.1,487a91.32,91.32,0,0,1,5.14-30.38c.08-.33.16-.65.24-.9a92.42,92.42,0,0,1,173.94,0,2.24,2.24,0,0,1,.33,1,91.2,91.2,0,0,1,5.14,30.3A92.5,92.5,0,0,1,108.45,579.36Z" transform="translate(0 -5.29)"/><text class="cls-2" transform="translate(211.74 557.56)">B2B-g<tspan class="cls-3" x="227.38" y="0">r</tspan><tspan class="cls-4" x="255.06" y="0">oup.it</tspan></text></svg>